  0
SECTION
  2
HEADER
  9
$ACADVER
  1
AC1009
  9
$DWGCODEPAGE
  3
ansi_1252
  9
$INSBASE
 10
0.0
 20
0.0
 30
0.0
  9
$EXTMIN
 10
-0.5
 20
-0.5
 30
-0.5
  9
$EXTMAX
 10
5.0
 20
5.0
 30
5.0
  9
$LIMMIN
 10
-0.5
 20
-0.5
  9
$LIMMAX
 10
5.0
 20
5.0
  9
$ORTHOMODE
 70
     0
  9
$REGENMODE
 70
     1
  9
$FILLMODE
 70
     1
  9
$QTEXTMODE
 70
     0
  9
$MIRRTEXT
 70
     1
  9
$DRAGMODE
 70
     2
  9
$LTSCALE
 40
1.0
  9
$OSMODE
 70
    37
  9
$ATTMODE
 70
     1
  9
$TEXTSIZE
 40
0.2
  9
$TRACEWID
 40
0.05
  9
$TEXTSTYLE
  7
STANDARD
  9
$CLAYER
  8
0
  9
$CELTYPE
  6
BYLAYER
  9
$CECOLOR
 62
   256
  9
$DIMSCALE
 40
1.0
  9
$DIMASZ
 40
0.18
  9
$DIMEXO
 40
0.0625
  9
$DIMDLI
 40
0.38
  9
$DIMRND
 40
0.0
  9
$DIMDLE
 40
0.0
  9
$DIMEXE
 40
0.18
  9
$DIMTP
 40
0.0
  9
$DIMTM
 40
0.0
  9
$DIMTXT
 40
0.18
  9
$DIMCEN
 40
0.09
  9
$DIMTSZ
 40
0.0
  9
$DIMTOL
 70
     0
  9
$DIMLIM
 70
     0
  9
$DIMTIH
 70
     1
  9
$DIMTOH
 70
     1
  9
$DIMSE1
 70
     0
  9
$DIMSE2
 70
     0
  9
$DIMTAD
 70
     0
  9
$DIMZIN
 70
     0
  9
$DIMBLK
  1

  9
$DIMASO
 70
     1
  9
$DIMSHO
 70
     1
  9
$DIMPOST
  1

  9
$DIMAPOST
  1

  9
$DIMALT
 70
     0
  9
$DIMALTD
 70
     2
  9
$DIMALTF
 40
25.4
  9
$DIMLFAC
 40
1.0
  9
$DIMTOFL
 70
     0
  9
$DIMTVP
 40
0.0
  9
$DIMTIX
 70
     0
  9
$DIMSOXD
 70
     0
  9
$DIMSAH
 70
     0
  9
$DIMBLK1
  1

  9
$DIMBLK2
  1

  9
$DIMSTYLE
  2
STANDARD
  9
$DIMCLRD
 70
     0
  9
$DIMCLRE
 70
     0
  9
$DIMCLRT
 70
     0
  9
$DIMTFAC
 40
1.0
  9
$DIMGAP
 40
0.09
  9
$LUNITS
 70
     2
  9
$LUPREC
 70
     4
  9
$SKETCHINC
 40
0.1
  9
$FILLETRAD
 40
0.5
  9
$AUNITS
 70
     0
  9
$AUPREC
 70
     0
  9
$MENU
  1
.
  9
$ELEVATION
 40
0.0
  9
$PELEVATION
 40
0.0
  9
$THICKNESS
 40
0.0
  9
$LIMCHECK
 70
     0
  9
$CHAMFERA
 40
0.0
  9
$CHAMFERB
 40
0.0
  9
$SKPOLY
 70
     0
  9
$TDCREATE
 40
2459136.358927812
  9
$TDUPDATE
 40
2459136.358927859
  9
$TDINDWG
 40
0.0000000116
  9
$TDUSRTIMER
 40
0.0000000116
  9
$USRTIMER
 70
     1
  9
$ANGBASE
 50
0.0
  9
$ANGDIR
 70
     0
  9
$PDMODE
 70
     0
  9
$PDSIZE
 40
0.0
  9
$PLINEWID
 40
0.0
  9
$COORDS
 70
     1
  9
$SPLFRAME
 70
     0
  9
$SPLINETYPE
 70
     6
  9
$SPLINESEGS
 70
     8
  9
$ATTDIA
 70
     0
  9
$ATTREQ
 70
     1
  9
$HANDLING
 70
     1
  9
$HANDSEED
  5
E0
  9
$SURFTAB1
 70
     6
  9
$SURFTAB2
 70
     6
  9
$SURFTYPE
 70
     6
  9
$SURFU
 70
     6
  9
$SURFV
 70
     6
  9
$UCSNAME
  2

  9
$UCSORG
 10
0.0
 20
0.0
 30
0.0
  9
$UCSXDIR
 10
1.0
 20
0.0
 30
0.0
  9
$UCSYDIR
 10
0.0
 20
1.0
 30
0.0
  9
$PUCSNAME
  2

  9
$PUCSORG
 10
0.0
 20
0.0
 30
0.0
  9
$PUCSXDIR
 10
1.0
 20
0.0
 30
0.0
  9
$PUCSYDIR
 10
0.0
 20
1.0
 30
0.0
  9
$USERI1
 70
     0
  9
$USERI2
 70
     0
  9
$USERI3
 70
     0
  9
$USERI4
 70
     0
  9
$USERI5
 70
     0
  9
$USERR1
 40
0.0
  9
$USERR2
 40
0.0
  9
$USERR3
 40
0.0
  9
$USERR4
 40
0.0
  9
$USERR5
 40
0.0
  9
$WORLDVIEW
 70
     1
  9
$SHADEDGE
 70
     3
  9
$SHADEDIF
 70
    70
  9
$TILEMODE
 70
     1
  9
$MAXACTVP
 70
    64
  9
$PLIMCHECK
 70
     0
  9
$PEXTMIN
 10
-0.5
 20
-0.5
 30
-0.5
  9
$PEXTMAX
 10
5.0
 20
5.0
 30
5.0
  9
$PLIMMIN
 10
-0.5
 20
-0.5
  9
$PLIMMAX
 10
5.0
 20
5.0
  9
$UNITMODE
 70
     0
  9
$VISRETAIN
 70
     1
  9
$PLINEGEN
 70
     0
  9
$PSLTSCALE
 70
     1
  0
ENDSEC
  0
SECTION
  2
TABLES
  0
TABLE
  2
VPORT
 70
    16
  0
VPORT
  2
*ACTIVE
 70
     0
 10
0.0
 20
0.0
 11
1.0
 21
1.0
 12
2.668381
 22
0.934443
 13
0.0
 23
0.0
 14
0.5
 24
0.5
 15
0.5
 25
0.5
 16
0.0
 26
0.0
 36
1.0
 17
0.0
 27
0.0
 37
0.0
 40
312.472917
 41
0.056827
 42
50.0
 43
630.340425
 44
-630.340425
 50
0.0
 51
0.0
 71
     0
 72
   100
 73
     1
 74
     3
 75
     0
 76
     0
 77
     0
 78
     0
  0
VPORT
  2
L1
 70
     0
 10
0.0
 20
0.0
 11
1.0
 21
1.0
 12
2.668381
 22
0.934443
 13
0.0
 23
0.0
 14
0.5
 24
0.5
 15
0.5
 25
0.5
 16
0.0
 26
0.0
 36
1.0
 17
0.0
 27
0.0
 37
0.0
 40
312.472917
 41
0.056827
 42
50.0
 43
630.340425
 44
-630.340425
 50
0.0
 51
0.0
 71
     0
 72
   100
 73
     1
 74
     3
 75
     0
 76
     0
 77
     0
 78
     0
  0
VPORT
  2
L2
 70
     0
 10
0.0
 20
0.0
 11
0.5
 21
1.0
 12
0.0
 22
0.0
 13
0.0
 23
0.0
 14
0.5
 24
0.5
 15
0.5
 25
0.5
 16
0.0
 26
-1.0
 36
0.0
 17
0.0
 27
0.0
 37
0.0
 40
2738.59659
 41
0.006484
 42
50.0
 43
1426.355155
 44
-1426.355155
 50
0.0
 51
0.0
 71
     0
 72
   100
 73
     1
 74
     3
 75
     0
 76
     0
 77
     0
 78
     0
  0
VPORT
  2
L2
 70
     0
 10
0.5
 20
0.0
 11
1.0
 21
1.0
 12
0.0
 22
0.0
 13
0.0
 23
0.0
 14
0.5
 24
0.5
 15
0.5
 25
0.5
 16
1.0
 26
0.0
 36
0.0
 17
0.0
 27
0.0
 37
0.0
 40
2738.59659
 41
0.006484
 42
50.0
 43
1378.182735
 44
-1378.182735
 50
0.0
 51
0.0
 71
     0
 72
   100
 73
     1
 74
     3
 75
     0
 76
     0
 77
     0
 78
     0
  0
VPORT
  2
L3
 70
     0
 10
0.0
 20
0.5
 11
1.0
 21
1.0
 12
2.668381
 22
0.934443
 13
0.0
 23
0.0
 14
0.5
 24
0.5
 15
0.5
 25
0.5
 16
0.0
 26
0.0
 36
1.0
 17
0.0
 27
0.0
 37
0.0
 40
312.472917
 41
0.056827
 42
50.0
 43
630.340425
 44
-630.340425
 50
0.0
 51
0.0
 71
     0
 72
   100
 73
     1
 74
     3
 75
     0
 76
     0
 77
     0
 78
     0
  0
VPORT
  2
L3
 70
     0
 10
0.0
 20
0.0
 11
1.0
 21
0.5
 12
0.0
 22
0.0
 13
0.0
 23
0.0
 14
0.5
 24
0.5
 15
0.5
 25
0.5
 16
0.0
 26
-1.0
 36
0.0
 17
0.0
 27
0.0
 37
0.0
 40
2738.59659
 41
0.006484
 42
50.0
 43
1426.355155
 44
-1426.355155
 50
0.0
 51
0.0
 71
     0
 72
   100
 73
     1
 74
     3
 75
     0
 76
     0
 77
     0
 78
     0
  0
VPORT
  2
L4
 70
     0
 10
0.0
 20
0.5
 11
0.5
 21
1.0
 12
2.668381
 22
0.934443
 13
0.0
 23
0.0
 14
0.5
 24
0.5
 15
0.5
 25
0.5
 16
0.0
 26
0.0
 36
1.0
 17
0.0
 27
0.0
 37
0.0
 40
312.472917
 41
0.056827
 42
50.0
 43
630.340425
 44
-630.340425
 50
0.0
 51
0.0
 71
     0
 72
   100
 73
     1
 74
     3
 75
     0
 76
     0
 77
     0
 78
     0
  0
VPORT
  2
L4
 70
     0
 10
0.0
 20
0.0
 11
0.5
 21
0.5
 12
0.0
 22
0.0
 13
0.0
 23
0.0
 14
0.5
 24
0.5
 15
0.5
 25
0.5
 16
0.0
 26
-1.0
 36
0.0
 17
0.0
 27
0.0
 37
0.0
 40
2738.59659
 41
0.006484
 42
50.0
 43
1426.355155
 44
-1426.355155
 50
0.0
 51
0.0
 71
     0
 72
   100
 73
     1
 74
     3
 75
     0
 76
     0
 77
     0
 78
     0
  0
VPORT
  2
L4
 70
     0
 10
0.5
 20
0.0
 11
1.0
 21
0.5
 12
0.0
 22
0.0
 13
0.0
 23
0.0
 14
0.5
 24
0.5
 15
0.5
 25
0.5
 16
1.0
 26
0.0
 36
0.0
 17
0.0
 27
0.0
 37
0.0
 40
2738.59659
 41
0.006484
 42
50.0
 43
1378.182735
 44
-1378.182735
 50
0.0
 51
0.0
 71
     0
 72
   100
 73
     1
 74
     3
 75
     0
 76
     0
 77
     0
 78
     0
  0
VPORT
  2
L4
 70
     0
 10
0.5
 20
0.5
 11
1.0
 21
1.0
 12
0.0
 22
0.0
 13
0.0
 23
0.0
 14
0.5
 24
0.5
 15
0.5
 25
0.5
 16
0.5773502691896258
 26
-0.5773502691896258
 36
0.5773502691896258
 17
0.0
 27
0.0
 37
0.0
 40
2689.720665
 41
0.006602
 42
50.0
 43
1401.07419
 44
-1401.07419
 50
0.0
 51
0.0
 71
     0
 72
   100
 73
     1
 74
     3
 75
     0
 76
     0
 77
     0
 78
     0
  0
VPORT
  2
L6
 70
     0
 10
0.0
 20
0.5
 11
0.333333
 21
1.0
 12
0.0
 22
0.0
 13
0.0
 23
0.0
 14
0.5
 24
0.5
 15
0.5
 25
0.5
 16
0.7188730927569433
 26
-0.5850486126764433
 36
0.3754192287502549
 17
0.0
 27
0.0
 37
0.0
 40
2844.914937
 41
0.006242
 42
50.0
 43
1470.619849
 44
-1470.619849
 50
0.0
 51
0.0
 71
     0
 72
   100
 73
     1
 74
     3
 75
     0
 76
     0
 77
     0
 78
     0
  0
VPORT
  2
L6
 70
     0
 10
0.0
 20
0.0
 11
0.333333
 21
0.5
 12
0.0
 22
0.0
 13
0.0
 23
0.0
 14
0.5
 24
0.5
 15
0.5
 25
0.5
 16
-1.0
 26
0.0
 36
0.0
 17
0.0
 27
0.0
 37
0.0
 40
2738.59659
 41
0.006484
 42
50.0
 43
1378.182735
 44
-1378.182735
 50
0.0
 51
0.0
 71
     0
 72
   100
 73
     1
 74
     3
 75
     0
 76
     0
 77
     0
 78
     0
  0
VPORT
  2
L6
 70
     0
 10
0.333333
 20
0.5
 11
0.666667
 21
1.0
 12
2.668381
 22
0.934443
 13
0.0
 23
0.0
 14
0.5
 24
0.5
 15
0.5
 25
0.5
 16
0.0
 26
0.0
 36
1.0
 17
0.0
 27
0.0
 37
0.0
 40
312.472917
 41
0.056827
 42
50.0
 43
630.340425
 44
-630.340425
 50
0.0
 51
0.0
 71
     0
 72
   100
 73
     1
 74
     3
 75
     0
 76
     0
 77
     0
 78
     0
  0
VPORT
  2
L6
 70
     0
 10
0.333333
 20
0.0
 11
0.666667
 21
0.5
 12
0.0
 22
0.0
 13
0.0
 23
0.0
 14
0.5
 24
0.5
 15
0.5
 25
0.5
 16
0.0
 26
-1.0
 36
0.0
 17
0.0
 27
0.0
 37
0.0
 40
2738.59659
 41
0.006484
 42
50.0
 43
1426.355155
 44
-1426.355155
 50
0.0
 51
0.0
 71
     0
 72
   100
 73
     1
 74
     3
 75
     0
 76
     0
 77
     0
 78
     0
  0
VPORT
  2
L6
 70
     0
 10
0.666667
 20
0.5
 11
1.0
 21
1.0
 12
0.0
 22
0.0
 13
0.0
 23
0.0
 14
0.5
 24
0.5
 15
0.5
 25
0.5
 16
0.5773502691896258
 26
-0.5773502691896258
 36
0.5773502691896258
 17
0.0
 27
0.0
 37
0.0
 40
2689.720665
 41
0.006602
 42
50.0
 43
1401.07419
 44
-1401.07419
 50
0.0
 51
0.0
 71
     0
 72
   100
 73
     1
 74
     3
 75
     0
 76
     0
 77
     0
 78
     0
  0
VPORT
  2
L6
 70
     0
 10
0.666667
 20
0.0
 11
1.0
 21
0.5
 12
0.0
 22
0.0
 13
0.0
 23
0.0
 14
0.5
 24
0.5
 15
0.5
 25
0.5
 16
1.0
 26
0.0
 36
0.0
 17
0.0
 27
0.0
 37
0.0
 40
2738.59659
 41
0.006484
 42
50.0
 43
1378.182735
 44
-1378.182735
 50
0.0
 51
0.0
 71
     0
 72
   100
 73
     1
 74
     3
 75
     0
 76
     0
 77
     0
 78
     0
  0
ENDTAB
  0
TABLE
  2
LTYPE
 70
    10
  0
LTYPE
  2
CONTINUOUS
 70
     0
  3
Solid line
 72
    65
 73
     0
 40
0.0
  0
LTYPE
  2
ACAD_ISO04W100
 70
     0
  3
ISO long-dash dot ____ . ____ . ____ . ____ . _
 72
    65
 73
     4
 40
30.0
 49
24.0
 49
-3.0
 49
0.0
 49
-3.0
  0
LTYPE
  2
ACAD_ISO05W100
 70
     0
  3
ISO long-dash double-dot ____ .. ____ .. ____ . 
 72
    65
 73
     6
 40
33.0
 49
24.0
 49
-3.0
 49
0.0
 49
-3.0
 49
0.0
 49
-3.0
  0
LTYPE
  2
ACAD_ISO06W100
 70
     0
  3
ISO long-dash triple-dot ____ ... ____ ... ____
 72
    65
 73
     8
 40
36.0
 49
24.0
 49
-3.0
 49
0.0
 49
-3.0
 49
0.0
 49
-3.0
 49
0.0
 49
-3.0
  0
LTYPE
  2
ACAD_ISO09W100
 70
     0
  3
ISO long-dash double-short-dash ____ __ __ ____
 72
    65
 73
     6
 40
45.0
 49
24.0
 49
-3.0
 49
6.0
 49
-3.0
 49
6.0
 49
-3.0
  0
LTYPE
  2
CENTER
 70
     0
  3
____ _ ____ _ ____ _ ____
 72
    65
 73
     4
 40
47.4
 49
22.0
 49
-8.5
 49
8.5
 49
-8.5
  0
LTYPE
  2
DASHDOT
 70
     0
  3
_._._._._._._._._._._._._._._._.
 72
    65
 73
     4
 40
70.0
 49
31.0
 49
-13.0
 49
13.0
 49
-13.0
  0
LTYPE
  2
DASHED
 70
     0
  3
__ __ __ __ __ __ __ __ __
 72
    65
 73
     2
 40
25.72
 49
12.86
 49
-12.86
  0
LTYPE
  2
DOT
 70
     0
  3
.........................
 72
    65
 73
     2
 40
10.0
 49
0.0
 49
-10.0
  0
LTYPE
  2
PHANTOM
 70
     0
  3
____ _ _ ____ _ _ _____ _ _ ____
 72
    65
 73
     6
 40
50.5
 49
18.0
 49
-6.5
 49
6.5
 49
-6.5
 49
6.5
 49
-6.5
  0
ENDTAB
  0
TABLE
  2
LAYER
 70
     2
  0
LAYER
  2
0
 70
     0
 62
     7
  6
CONTINUOUS
  0
LAYER
  2
1
 70
     0
 62
     7
  6
CONTINUOUS
  0
ENDTAB
  0
TABLE
  2
STYLE
 70
     1
  0
STYLE
  2
STANDARD
 70
     0
 40
0.0
 41
1.0
 50
0.0
 71
     0
 42
0.2
  3
txt
  4

  0
ENDTAB
  0
TABLE
  2
VIEW
 70
     8
  0
VIEW
  2
TOP
 70
     0
 40
312.472917
 10
2.668381
 20
0.934443
 41
798.777083
 11
0.0
 21
0.0
 31
1.0
 12
0.0
 22
0.0
 32
0.0
 42
50.0
 43
630.340425
 44
-630.340425
 50
0.0
 71
     0
  0
VIEW
  2
FRONT
 70
     0
 40
2738.59659
 10
0.0
 20
0.0
 41
798.777083
 11
0.0
 21
-1.0
 31
0.0
 12
0.0
 22
0.0
 32
0.0
 42
50.0
 43
1426.355155
 44
-1426.355155
 50
0.0
 71
     0
  0
VIEW
  2
RIGHT
 70
     0
 40
2738.59659
 10
0.0
 20
0.0
 41
312.472917
 11
1.0
 21
0.0
 31
0.0
 12
0.0
 22
0.0
 32
0.0
 42
50.0
 43
1378.182735
 44
-1378.182735
 50
0.0
 71
     0
  0
VIEW
  2
BACK
 70
     0
 40
2738.59659
 10
0.0
 20
0.0
 41
798.777083
 11
0.0
 21
1.0
 31
0.0
 12
0.0
 22
0.0
 32
0.0
 42
50.0
 43
1426.355155
 44
-1426.355155
 50
0.0
 71
     0
  0
VIEW
  2
BOTTOM
 70
     0
 40
312.472917
 10
0.0
 20
0.0
 41
798.777083
 11
0.0
 21
0.0
 31
-1.0
 12
0.0
 22
0.0
 32
0.0
 42
50.0
 43
1369.298295
 44
-1369.298295
 50
180.0
 71
     0
  0
VIEW
  2
LEFT
 70
     0
 40
2738.59659
 10
0.0
 20
0.0
 41
312.472917
 11
-1.0
 21
0.0
 31
0.0
 12
0.0
 22
0.0
 32
0.0
 42
50.0
 43
1378.182735
 44
-1378.182735
 50
0.0
 71
     0
  0
VIEW
  2
ISOMETRIC
 70
     0
 40
2689.720665
 10
0.0
 20
0.0
 41
785.772411
 11
0.5773502691896258
 21
-0.5773502691896258
 31
0.5773502691896258
 12
0.0
 22
0.0
 32
0.0
 42
50.0
 43
1401.07419
 44
-1401.07419
 50
0.0
 71
     0
  0
VIEW
  2
TRIMETRIC
 70
     0
 40
2844.914937
 10
0.0
 20
0.0
 41
746.558751
 11
0.7188730927569433
 21
-0.5850486126764433
 31
0.3754192287502549
 12
0.0
 22
0.0
 32
0.0
 42
50.0
 43
1470.619849
 44
-1470.619849
 50
0.0
 71
     0
  0
ENDTAB
  0
TABLE
  2
UCS
 70
     0
  0
ENDTAB
  0
TABLE
  2
APPID
 70
     1
  0
APPID
  2
ACAD
 70
     0
  0
ENDTAB
  0
TABLE
  2
DIMSTYLE
 70
     1
  0
DIMSTYLE
  2
STANDARD
 70
     0
  3

  4

  5

  6

  7

 40
1.0
 41
0.18
 42
0.0625
 43
0.38
 44
0.18
 45
0.0
 46
0.0
 47
0.0
 48
0.0
140
0.18
141
0.09
142
0.0
143
25.4
144
1.0
145
0.0
146
1.0
147
0.09
 71
     0
 72
     0
 73
     1
 74
     1
 75
     0
 76
     0
 77
     0
 78
     0
170
     0
171
     2
172
     0
173
     0
174
     0
175
     0
176
     0
177
     0
178
     0
  0
ENDTAB
  0
ENDSEC
  0
SECTION
  2
BLOCKS
  0
BLOCK
  8
0
  2
$MODEL_SPACE
 70
     0
 10
0.0
 20
0.0
 30
0.0
  3
$MODEL_SPACE
  1

  0
ENDBLK
  5
21
  8
0
  0
BLOCK
 67
     1
  8
0
  2
$PAPER_SPACE
 70
     0
 10
0.0
 20
0.0
 30
0.0
  3
$PAPER_SPACE
  1

  0
ENDBLK
  5
1D
 67
     1
  8
0
  0
ENDSEC
  0
SECTION
  2
ENTITIES
  0
LINE
  5
77
  8
1
  6
CONTINUOUS
 62
   163
 10
19.603645
 20
25.221296
 30
0.0
 11
24.415973
 21
-17.833518
 31
0.0
  0
LINE
  5
79
  8
1
  6
CONTINUOUS
 62
   163
 10
-131.4
 20
-37.6
 30
0.0
 11
186.6
 21
-37.6
 31
0.0
  0
LINE
  5
7A
  8
1
  6
CONTINUOUS
 62
   150
 10
43.9
 20
18.1
 30
0.0
 11
64.1
 21
18.1
 31
0.0
  0
LINE
  5
7B
  8
1
  6
CONTINUOUS
 62
   150
 10
-177.1
 20
-10.1
 30
0.0
 11
-177.1
 21
10.1
 31
0.0
  0
LINE
  5
7C
  8
1
  6
CONTINUOUS
 62
   163
 10
18.453104
 20
-24.5
 30
0.0
 11
-9.393421
 21
-24.5
 31
0.0
  0
LINE
  5
7D
  8
1
  6
CONTINUOUS
 62
   163
 10
-89.546896
 20
-24.5
 30
0.0
 11
-114.393421
 21
-24.5
 31
0.0
  0
LINE
  5
7E
  8
1
  6
CONTINUOUS
 62
   163
 10
198.349019
 20
-21.882572
 30
0.0
 11
187.322968
 21
15.478052
 31
0.0
  0
LINE
  5
7F
  8
1
  6
CONTINUOUS
 62
   150
 10
-64.1
 20
18.1
 30
0.0
 11
-43.9
 21
18.1
 31
0.0
  0
LINE
  5
80
  8
1
  6
CONTINUOUS
 62
   163
 10
-143.211158
 20
28.22835
 30
0.0
 11
-176.907747
 21
38.802648
 31
0.0
  0
LINE
  5
81
  8
1
  6
CONTINUOUS
 62
   150
 10
140.9
 20
-10.1
 30
0.0
 11
140.9
 21
10.1
 31
0.0
  0
LINE
  5
82
  8
1
  6
CONTINUOUS
 62
   163
 10
-120.148042
 20
-20.198332
 30
0.0
 11
-130.677032
 21
15.478052
 31
0.0
  0
LINE
  5
83
  8
1
  6
CONTINUOUS
 62
   163
 10
123.414887
 20
-24.5
 30
0.0
 11
98.606579
 21
-24.5
 31
0.0
  0
LINE
  5
84
  8
1
  6
CONTINUOUS
 62
   163
 10
-15.148042
 20
-20.198332
 30
0.0
 11
-25.677032
 21
15.478052
 31
0.0
  0
LINE
  5
85
  8
1
  6
CONTINUOUS
 62
   163
 10
-193.396355
 20
25.221296
 30
0.0
 11
-189.197342
 21
-12.346323
 31
0.0
  0
LINE
  5
86
  8
1
  6
CONTINUOUS
 62
   150
 10
148.9
 20
18.1
 30
0.0
 11
169.1
 21
18.1
 31
0.0
  0
LINE
  5
87
  8
1
  6
CONTINUOUS
 62
   163
 10
69.788842
 20
28.22835
 30
0.0
 11
36.092253
 21
38.802648
 31
0.0
  0
LINE
  5
88
  8
1
  6
CONTINUOUS
 62
   150
 10
177.1
 20
10.1
 30
0.0
 11
177.1
 21
-10.1
 31
0.0
  0
LINE
  5
89
  8
1
  6
CONTINUOUS
 62
   163
 10
174.788842
 20
28.22835
 30
0.0
 11
141.052646
 21
38.815077
 31
0.0
  0
LINE
  5
8A
  8
1
  6
CONTINUOUS
 62
   163
 10
-88.396355
 20
25.221296
 30
0.0
 11
-83.584027
 21
-17.833518
 31
0.0
  0
LINE
  5
8B
  8
1
  6
CONTINUOUS
 62
   163
 10
-172.921544
 20
-29.95812
 30
0.0
 11
-134.990524
 21
-37.257656
 31
0.0
  0
LINE
  5
8C
  8
1
  6
CONTINUOUS
 62
   150
 10
72.1
 20
10.1
 30
0.0
 11
72.1
 21
-10.1
 31
0.0
  0
LINE
  5
8D
  8
1
  6
CONTINUOUS
 62
   163
 10
92.851958
 20
-20.198332
 30
0.0
 11
82.322968
 21
15.478052
 31
0.0
  0
LINE
  5
8E
  8
1
  6
CONTINUOUS
 62
   163
 10
-38.211158
 20
28.22835
 30
0.0
 11
-71.907747
 21
38.802648
 31
0.0
  0
LINE
  5
8F
  8
1
  6
CONTINUOUS
 62
   150
 10
-169.1
 20
18.1
 30
0.0
 11
-148.9
 21
18.1
 31
0.0
  0
LINE
  5
90
  8
1
  6
CONTINUOUS
 62
   150
 10
169.1
 20
-18.1
 30
0.0
 11
148.9
 21
-18.1
 31
0.0
  0
LINE
  5
91
  8
1
  6
CONTINUOUS
 62
   150
 10
-43.9
 20
-18.1
 30
0.0
 11
-64.1
 21
-18.1
 31
0.0
  0
LINE
  5
92
  8
1
  6
CONTINUOUS
 62
   150
 10
64.1
 20
-18.1
 30
0.0
 11
43.9
 21
-18.1
 31
0.0
  0
LINE
  5
93
  8
1
  6
CONTINUOUS
 62
   150
 10
-35.9
 20
10.1
 30
0.0
 11
-35.9
 21
-10.1
 31
0.0
  0
LINE
  5
94
  8
1
  6
CONTINUOUS
 62
   150
 10
35.9
 20
-10.1
 30
0.0
 11
35.9
 21
10.1
 31
0.0
  0
LINE
  5
95
  8
1
  6
CONTINUOUS
 62
   150
 10
-140.9
 20
10.1
 30
0.0
 11
-140.9
 21
-10.1
 31
0.0
  0
LINE
  5
96
  8
1
  6
CONTINUOUS
 62
   163
 10
124.564038
 20
25.233725
 30
0.0
 11
129.377755
 21
-17.833518
 31
0.0
  0
LINE
  5
97
  8
1
  6
CONTINUOUS
 62
   150
 10
-72.1
 20
-10.1
 30
0.0
 11
-72.1
 21
10.1
 31
0.0
  0
LINE
  5
98
  8
1
  6
CONTINUOUS
 62
   150
 10
-148.9
 20
-18.1
 30
0.0
 11
-169.1
 21
-18.1
 31
0.0
  0
ARC
  5
99
  8
1
  6
CONTINUOUS
 62
   150
 10
64.1
 20
-10.1
 30
0.0
 40
8.000000000000021
 50
270.0
 51
0.0
  0
ARC
  5
9A
  8
1
  6
CONTINUOUS
 62
   163
 10
-75.725259
 20
26.637571
 30
0.0
 40
12.74999999999998
 50
72.577665
 51
186.3776
  0
ARC
  5
9B
  8
1
  6
CONTINUOUS
 62
   163
 10
186.6
 20
-25.35
 30
0.0
 40
12.25000000000005
 50
270.0
 51
16.442643
  0
ARC
  5
9C
  8
1
  6
CONTINUOUS
 62
   150
 10
148.9
 20
-10.1
 30
0.0
 40
8.000000000000004
 50
180.0
 51
270.0
  0
ARC
  5
9D
  8
1
  6
CONTINUOUS
 62
   150
 10
-64.1
 20
-10.1
 30
0.0
 40
8.000000000000004
 50
180.0
 51
270.0
  0
ARC
  5
9E
  8
1
  6
CONTINUOUS
 62
   150
 10
-169.1
 20
10.1
 30
0.0
 40
7.999999999999424
 50
90.0
 51
180.0
  0
ARC
  5
9F
  8
1
  6
CONTINUOUS
 62
   163
 10
-169.1
 20
-10.1
 30
0.0
 40
20.22249086489985
 50
186.3776
 51
259.107031
  0
ARC
  5
A0
  8
1
  6
CONTINUOUS
 62
   150
 10
-169.1
 20
-10.1
 30
0.0
 40
8.000000000000004
 50
180.0
 51
270.0
  0
ARC
  5
A1
  8
1
  6
CONTINUOUS
 62
   150
 10
-43.9
 20
-10.1
 30
0.0
 40
7.999999999999993
 50
270.0
 51
0.0
  0
ARC
  5
A2
  8
1
  6
CONTINUOUS
 62
   163
 10
169.1
 20
10.1
 30
0.0
 40
18.99999999999996
 50
16.442643
 51
72.577665
  0
ARC
  5
A3
  8
1
  6
CONTINUOUS
 62
   150
 10
148.9
 20
10.1
 30
0.0
 40
8.000000000000036
 50
90.0
 51
180.0
  0
ARC
  5
A4
  8
1
  6
CONTINUOUS
 62
   150
 10
-148.9
 20
-10.1
 30
0.0
 40
8.000000000000036
 50
270.0
 51
360.0
  0
ARC
  5
A5
  8
1
  6
CONTINUOUS
 62
   150
 10
-43.9
 20
10.1
 30
0.0
 40
7.999999999999989
 50
0.0
 51
90.0
  0
CIRCLE
  5
A6
  8
1
  6
CONTINUOUS
 62
   150
 10
186.6
 20
-25.35
 30
0.0
 40
4.75
  0
CIRCLE
  5
A7
  8
1
  6
CONTINUOUS
 62
   150
 10
-180.725259
 20
26.637571
 30
0.0
 40
4.75
  0
ARC
  5
A8
  8
1
  6
CONTINUOUS
 62
   163
 10
123.414887
 20
-18.5
 30
0.0
 40
6.000000000000019
 50
270.0
 51
6.3776
  0
ARC
  5
A9
  8
1
  6
CONTINUOUS
 62
   163
 10
-131.4
 20
-18.6
 30
0.0
 40
19.00000000000001
 50
259.107031
 51
270.0
  0
ARC
  5
AA
  8
1
  6
CONTINUOUS
 62
   163
 10
-9.393421
 20
-18.5
 30
0.0
 40
6.000000000000005
 50
196.442643
 51
270.0
  0
ARC
  5
AB
  8
1
  6
CONTINUOUS
 62
   150
 10
-64.1
 20
10.1
 30
0.0
 40
8.000000000000036
 50
90.0
 51
180.0
  0
CIRCLE
  5
AC
  8
1
  6
CONTINUOUS
 62
   150
 10
81.6
 20
-25.4
 30
0.0
 40
4.75
  0
ARC
  5
AD
  8
1
  6
CONTINUOUS
 62
   163
 10
-180.725259
 20
26.637571
 30
0.0
 40
12.74999999999987
 50
72.577665
 51
186.3776
  0
ARC
  5
AE
  8
1
  6
CONTINUOUS
 62
   150
 10
64.1
 20
10.1
 30
0.0
 40
8.00000000000001
 50
0.0
 51
90.0
  0
CIRCLE
  5
AF
  8
1
  6
CONTINUOUS
 62
   150
 10
137.235134
 20
26.65
 30
0.0
 40
4.75
  0
ARC
  5
B0
  8
1
  6
CONTINUOUS
 62
   163
 10
-43.9
 20
10.1
 30
0.0
 40
19.0
 50
16.442643
 51
72.577665
  0
ARC
  5
B1
  8
1
  6
CONTINUOUS
 62
   163
 10
-114.393421
 20
-18.5
 30
0.0
 40
6.000000000000012
 50
196.442643
 51
270.0
  0
CIRCLE
  5
B2
  8
1
  6
CONTINUOUS
 62
   150
 10
32.274741
 20
26.637571
 30
0.0
 40
4.750000000000007
  0
ARC
  5
B3
  8
1
  6
CONTINUOUS
 62
   163
 10
18.453104
 20
-18.5
 30
0.0
 40
6.000000000000007
 50
270.0
 51
6.3776
  0
ARC
  5
B4
  8
1
  6
CONTINUOUS
 62
   163
 10
-148.9
 20
10.1
 30
0.0
 40
18.99999999999994
 50
16.442643
 51
72.577665
  0
CIRCLE
  5
B5
  8
1
  6
CONTINUOUS
 62
   150
 10
-131.4
 20
-25.4
 30
0.0
 40
4.75
  0
ARC
  5
B6
  8
1
  6
CONTINUOUS
 62
   150
 10
43.9
 20
-10.1
 30
0.0
 40
8.000000000000007
 50
180.0
 51
270.0
  0
ARC
  5
B7
  8
1
  6
CONTINUOUS
 62
   163
 10
-89.546896
 20
-18.5
 30
0.0
 40
5.99999999999998
 50
270.0
 51
6.3776
  0
CIRCLE
  5
B8
  8
1
  6
CONTINUOUS
 62
   150
 10
-26.4
 20
-25.4
 30
0.0
 40
4.75
  0
ARC
  5
B9
  8
1
  6
CONTINUOUS
 62
   150
 10
-148.9
 20
10.1
 30
0.0
 40
7.999999999999823
 50
0.0
 51
90.0
  0
ARC
  5
BA
  8
1
  6
CONTINUOUS
 62
   163
 10
98.606579
 20
-18.5
 30
0.0
 40
6.000000000000005
 50
196.442643
 51
270.0
  0
ARC
  5
BB
  8
1
  6
CONTINUOUS
 62
   163
 10
64.1
 20
10.1
 30
0.0
 40
19.00000000000001
 50
16.442643
 51
72.577665
  0
ARC
  5
BC
  8
1
  6
CONTINUOUS
 62
   150
 10
169.1
 20
10.1
 30
0.0
 40
8.000000000000032
 50
0.0
 51
90.0
  0
CIRCLE
  5
BD
  8
1
  6
CONTINUOUS
 62
   150
 10
-75.725259
 20
26.637571
 30
0.0
 40
4.75
  0
ARC
  5
BE
  8
1
  6
CONTINUOUS
 62
   163
 10
32.274741
 20
26.637571
 30
0.0
 40
12.74999999999998
 50
72.577665
 51
186.3776
  0
ARC
  5
BF
  8
1
  6
CONTINUOUS
 62
   150
 10
43.9
 20
10.1
 30
0.0
 40
7.999999999999993
 50
90.0
 51
180.0
  0
ARC
  5
C0
  8
1
  6
CONTINUOUS
 62
   163
 10
137.235134
 20
26.65
 30
0.0
 40
12.74999999999988
 50
72.577665
 51
186.3776
  0
ARC
  5
C1
  8
1
  6
CONTINUOUS
 62
   150
 10
169.1
 20
-10.1
 30
0.0
 40
8.000000000000062
 50
270.0
 51
0.0
  0
ENDSEC
  0
EOF
